<?xml version="1.0" standalone="no"?>
<!DOCTYPE svg PUBLIC "-//W3C//DTD SVG 20010904//EN"
 "http://www.w3.org/TR/2001/REC-SVG-20010904/DTD/svg10.dtd">
<svg version="1.0" xmlns="http://www.w3.org/2000/svg"
 width="810.000000pt" height="532.000000pt" viewBox="0 0 810.000000 532.000000"
 preserveAspectRatio="xMidYMid meet">

<g transform="translate(0.000000,532.000000) scale(0.100000,-0.100000)"
fill="#000000" stroke="none">
<path d="M3364 4387 c-111 -32 -194 -124 -214 -238 -7 -44 -10 -273 -8 -724
l3 -660 23 -51 c29 -64 92 -126 157 -156 l50 -23 663 -3 c422 -2 684 1 719 8
113 20 183 75 230 176 l24 52 -3 708 -3 709 -25 48 c-29 58 -86 112 -149 141
-45 21 -54 21 -736 23 -499 1 -701 -2 -731 -10z m1441 -113 c22 -11 54 -40 70
-63 l30 -43 0 -701 0 -702 -24 -38 c-13 -21 -42 -50 -64 -65 l-41 -27 -673 -3
c-476 -2 -686 1 -716 9 -61 16 -122 82 -136 149 -15 71 -15 1279 0 1351 14 63
65 123 124 144 33 12 151 14 715 12 663 -2 676 -2 715 -23z"/>
<path d="M4625 4173 c-61 -17 -95 -67 -95 -139 0 -41 5 -51 39 -85 34 -35 44
-39 87 -39 62 0 105 25 128 75 29 60 8 134 -48 170 -27 18 -81 26 -111 18z"/>
<path d="M4001 3969 c-140 -18 -302 -131 -370 -258 -109 -206 -72 -451 94
-611 181 -173 454 -192 654 -45 151 111 232 306 202 486 -46 280 -297 465
-580 428z"/>
<path d="M5886 2239 c-31 -25 -33 -57 -5 -93 15 -19 30 -26 55 -26 67 0 99 73
51 118 -29 28 -67 28 -101 1z"/>
<path d="M5592 1903 l3 -348 65 0 65 0 3 348 2 347 -70 0 -70 0 2 -347z"/>
<path d="M1943 2229 c-70 -13 -129 -44 -159 -85 -25 -33 -29 -46 -29 -105 0
-53 5 -74 21 -96 36 -49 115 -88 222 -111 54 -12 110 -26 124 -31 64 -24 54
-93 -16 -120 -51 -20 -143 -4 -228 38 -34 17 -65 28 -69 24 -3 -5 -21 -28 -38
-52 l-32 -45 53 -33 c176 -112 432 -87 500 48 24 46 23 134 0 179 -29 54 -103
93 -229 120 -138 30 -163 42 -163 79 0 16 7 34 15 41 45 37 161 30 244 -16 24
-13 45 -23 46 -22 1 2 18 25 39 53 35 47 36 50 19 63 -43 32 -115 62 -174 72
-72 11 -87 11 -146 -1z"/>
<path d="M4450 2226 c-135 -30 -191 -100 -177 -222 9 -86 88 -140 253 -174 52
-11 108 -27 124 -35 60 -31 26 -105 -55 -121 -46 -8 -136 12 -202 47 -30 16
-56 29 -58 29 -2 0 -20 -23 -40 -51 -42 -59 -43 -57 57 -109 132 -69 334 -60
422 18 50 45 70 149 41 217 -29 70 -98 108 -255 140 -47 9 -97 23 -112 31 -37
19 -45 51 -21 76 45 44 152 41 245 -7 l48 -24 40 52 c37 48 38 53 22 65 -41
32 -114 62 -173 72 -77 12 -89 12 -159 -4z"/>
<path d="M6180 2135 l0 -65 -30 0 -30 0 0 -60 0 -60 30 0 30 0 0 -162 c0 -111
4 -171 13 -188 18 -36 62 -54 145 -58 l72 -4 0 60 0 61 -37 3 c-54 4 -63 29
-63 171 l0 117 50 0 50 0 0 60 0 60 -50 0 -50 0 0 65 0 65 -65 0 -65 0 0 -65z"/>
<path d="M2607 2060 c-130 -33 -210 -128 -211 -250 0 -81 28 -145 87 -196 62
-52 101 -67 188 -68 62 -1 84 4 124 25 51 25 123 106 108 119 -4 4 -29 15 -55
25 l-47 18 -36 -31 c-115 -102 -281 16 -226 161 14 36 61 76 97 83 44 8 110
-12 132 -41 11 -14 24 -25 30 -25 15 0 112 42 112 49 0 4 -13 22 -29 42 -61
74 -180 112 -274 89z"/>
<path d="M3156 2055 c-57 -20 -107 -65 -135 -121 -33 -65 -35 -177 -4 -245 57
-127 206 -180 332 -117 l51 25 0 -24 c0 -23 2 -24 68 -21 l67 3 3 253 2 252
-70 0 c-69 0 -70 0 -70 -27 0 -24 -1 -25 -18 -10 -50 45 -150 59 -226 32z
m211 -148 c22 -25 33 -47 34 -69 4 -114 -37 -170 -124 -172 -99 -2 -152 55
-145 154 3 46 10 66 29 86 34 37 56 44 118 40 48 -3 58 -7 88 -39z"/>
<path d="M3876 2054 c-21 -8 -45 -19 -52 -25 -11 -9 -14 -7 -14 10 0 19 -5 21
-70 21 l-70 0 2 -252 3 -253 65 0 65 0 5 172 c5 170 5 173 31 199 34 34 101
36 133 4 19 -19 21 -35 26 -198 l5 -177 68 -3 67 -3 0 184 c0 111 -5 198 -11
218 -33 98 -144 143 -253 103z"/>
<path d="M5123 2045 c-51 -23 -53 -23 -53 -5 0 18 -7 20 -70 20 l-70 0 0 -335
0 -335 70 0 70 0 0 106 0 105 29 -21 c16 -11 54 -25 84 -31 108 -22 219 36
267 139 33 69 31 174 -4 246 -60 122 -199 170 -323 111z m142 -109 c99 -42
100 -208 1 -259 -83 -43 -187 11 -201 105 -18 120 87 201 200 154z"/>
<path d="M5870 1805 l0 -256 68 3 67 3 3 253 2 252 -70 0 -70 0 0 -255z"/>
<path d="M2221 1246 c-16 -19 -3 -45 26 -52 20 -5 24 -12 20 -30 -2 -13 0 -24
4 -24 5 0 9 11 9 25 0 18 -7 28 -24 35 -13 5 -26 13 -29 17 -10 17 11 36 32
30 12 -3 19 -1 15 4 -8 14 -40 11 -53 -5z"/>
<path d="M2417 1242 c-18 -20 -23 -77 -8 -86 5 -4 7 11 4 32 -6 45 13 67 52
60 13 -3 22 -1 19 3 -9 16 -50 10 -67 -9z"/>
<path d="M2627 1200 c-14 -33 -21 -60 -16 -60 5 0 9 7 9 15 0 22 66 20 80 -2
10 -16 11 -16 5 2 -12 41 -40 105 -46 105 -3 0 -17 -27 -32 -60z m53 -7 c0 -7
-11 -13 -24 -13 -23 0 -24 2 -13 30 11 28 13 29 24 13 7 -9 13 -23 13 -30z"/>
<path d="M2832 1198 l1 -63 6 49 6 49 33 -47 c18 -25 37 -46 43 -46 5 0 8 28
7 63 l-2 62 -3 -52 c-2 -29 -7 -53 -11 -53 -4 0 -20 20 -35 45 -16 25 -33 47
-38 51 -5 3 -8 -22 -7 -58z"/>
<path d="M3331 1246 c-16 -19 -3 -45 25 -52 14 -4 24 -14 24 -24 0 -23 -19
-30 -45 -18 -19 9 -19 9 -1 -6 14 -11 24 -13 37 -5 28 14 23 46 -8 61 -36 17
-37 43 -1 43 14 -1 24 3 22 7 -8 13 -41 9 -53 -6z"/>
<path d="M3511 1198 c1 -35 4 -51 6 -35 3 17 11 27 21 27 16 1 15 1 0 11 -10
5 -18 19 -18 30 0 15 6 20 23 17 16 -2 22 -9 21 -25 -1 -26 11 -31 20 -8 7 20
-20 45 -50 45 -23 0 -24 -3 -23 -62z"/>
<path d="M3702 1203 l-2 -63 38 2 c36 1 36 1 5 5 -31 4 -32 5 -36 61 l-3 57
-2 -62z"/>
<path d="M3883 1200 c0 -36 2 -50 4 -32 2 17 2 47 0 65 -2 17 -4 3 -4 -33z"/>
<path d="M4018 1253 c19 -4 22 -11 24 -61 l1 -57 6 55 c5 47 9 55 31 61 17 5
7 7 -30 7 -30 -1 -45 -3 -32 -5z"/>
<path d="M4493 1253 c-24 -9 -14 -42 17 -58 33 -17 36 -25 18 -43 -7 -7 -17
-8 -30 -1 -10 6 -18 6 -18 0 0 -15 30 -22 51 -11 28 15 23 38 -11 58 -37 21
-35 48 3 45 15 -1 25 2 22 8 -6 10 -31 11 -52 2z"/>
<path d="M4673 1200 c0 -36 2 -50 4 -32 2 17 2 47 0 65 -2 17 -4 3 -4 -33z"/>
<path d="M4807 1253 c-4 -3 -6 -31 -5 -62 l1 -56 6 50 6 50 26 -49 26 -50 24
50 23 49 6 -50 7 -50 1 63 c1 34 -2 62 -8 62 -5 0 -19 -23 -32 -52 l-22 -52
-23 52 c-24 54 -25 56 -36 45z"/>
<path d="M5051 1198 c1 -35 4 -51 6 -35 3 17 11 27 21 27 16 1 15 1 0 11 -10
5 -18 19 -18 30 0 15 6 20 23 17 16 -2 22 -9 21 -25 0 -13 3 -23 8 -23 4 0 8
11 8 24 0 24 -16 36 -51 36 -17 0 -19 -7 -18 -62z"/>
<path d="M5242 1203 l-2 -63 38 2 c36 1 36 1 5 5 -31 4 -32 5 -36 61 l-3 57
-2 -62z"/>
<path d="M5423 1200 c0 -36 2 -50 4 -32 2 17 2 47 0 65 -2 17 -4 3 -4 -33z"/>
<path d="M5561 1198 c1 -35 4 -51 6 -36 3 20 11 28 31 31 l27 4 -27 2 c-23 1
-28 6 -28 25 0 20 6 25 33 29 31 4 31 4 -5 5 l-38 2 1 -62z"/>
<path d="M5730 1254 c0 -3 9 -18 19 -33 11 -15 21 -40 24 -56 l4 -30 2 30 c1
17 10 41 21 55 11 14 20 30 20 35 0 6 -10 -5 -22 -23 l-21 -34 -19 31 c-19 30
-28 38 -28 25z"/>
<path d="M2210 1156 c0 -3 9 -10 20 -16 11 -6 20 -8 20 -6 0 3 -9 10 -20 16
-11 6 -20 8 -20 6z"/>
<path d="M2480 1150 c-9 -6 -10 -10 -3 -10 6 0 15 5 18 10 8 12 4 12 -15 0z"/>
<path d="M2430 1146 c0 -2 7 -7 16 -10 8 -3 12 -2 9 4 -6 10 -25 14 -25 6z"/>
</g>
</svg>
