<?xml version="1.0" standalone="no"?>
<!DOCTYPE svg PUBLIC "-//W3C//DTD SVG 20010904//EN"
 "http://www.w3.org/TR/2001/REC-SVG-20010904/DTD/svg10.dtd">
<svg version="1.0" xmlns="http://www.w3.org/2000/svg"
 width="334.000000pt" height="256.000000pt" viewBox="0 0 334.000000 256.000000"
 preserveAspectRatio="xMidYMid meet">

<g transform="translate(0.000000,256.000000) scale(0.100000,-0.100000)"
fill="#000000" stroke="none">
<path d="M984 2057 c-111 -32 -194 -124 -214 -238 -7 -44 -10 -273 -8 -724 l3
-660 23 -51 c29 -64 92 -126 157 -156 l50 -23 663 -3 c422 -2 684 1 719 8 113
20 183 75 230 176 l24 52 -3 708 -3 709 -25 48 c-29 58 -86 112 -149 141 -45
21 -54 21 -736 23 -499 1 -701 -2 -731 -10z m1441 -113 c22 -11 54 -40 70 -63
l30 -43 0 -701 0 -702 -24 -38 c-13 -21 -42 -50 -64 -65 l-41 -27 -673 -3
c-476 -2 -686 1 -716 9 -61 16 -122 82 -136 149 -15 71 -15 1279 0 1351 14 63
65 123 124 144 33 12 151 14 715 12 663 -2 676 -2 715 -23z"/>
<path d="M2245 1843 c-61 -17 -95 -67 -95 -139 0 -41 5 -51 39 -85 34 -35 44
-39 87 -39 62 0 105 25 128 75 29 60 8 134 -48 170 -27 18 -81 26 -111 18z"/>
<path d="M1621 1639 c-140 -18 -302 -131 -370 -258 -109 -206 -72 -451 94
-611 181 -173 454 -192 654 -45 151 111 232 306 202 486 -46 280 -297 465
-580 428z"/>
</g>
</svg>
